<svg xmlns="http://www.w3.org/2000/svg" width="512" height="512" viewBox="0 0 512 512"><path d="M 181 155 L 200 155 L 200 238 L 181 238 Z M 275 235 C 245 239 210 224 210 198 C 210 172 245 153 275 156 L 275 174 C 252 169 230 180 230 197 C 230 214 252 223 275 218 Z M 287 155 L 335 155 L 335 170 L 306 170 L 306 188 L 333 188 L 333 204 L 306 204 L 306 223 L 337 223 L 337 238 L 287 238 Z M 96 276 L 114 276 L 114 344 L 145 344 L 145 359 L 96 359 Z M 189 274 C 221 274 240 310 225 338 C 209 367 169 367 153 338 C 138 310 157 274 189 274 Z M 189 290 C 173 290 163 312 171 330 C 179 348 199 348 207 330 C 215 312 205 290 189 290 Z M 309 353 C 271 360 236 345 236 319 C 236 293 271 274 305 278 L 305 295 C 278 290 255 301 255 318 C 255 335 278 345 291 343 L 291 326 L 274 326 L 274 311 L 309 311 Z M 323 276 L 341 276 L 341 359 L 323 359 Z M 373 276 L 388 304 L 403 276 L 425 276 L 399 317 L 426 359 L 403 359 L 388 331 L 372 359 L 348 359 L 375 317 L 351 276 Z" fill="#ffffff"/></svg>